<?xml version="1.0" encoding="UTF-8" standalone="no"?>
<!-- Created with Inkscape (http://www.inkscape.org/) -->

<svg
   width="40mm"
   height="30mm"
   viewBox="0 0 40 30"
   version="1.1"
   id="svg1"
   inkscape:version="1.3.2 (091e20e, 2023-11-25, custom)"
   sodipodi:docname="axonometrikus tengelyek.svg"
   xmlns:inkscape="http://www.inkscape.org/namespaces/inkscape"
   xmlns:sodipodi="http://sodipodi.sourceforge.net/DTD/sodipodi-0.dtd"
   xmlns="http://www.w3.org/2000/svg"
   xmlns:svg="http://www.w3.org/2000/svg">
  <sodipodi:namedview
     id="namedview1"
     pagecolor="#ffffff"
     bordercolor="#cccccc"
     borderopacity="1"
     inkscape:showpageshadow="0"
     inkscape:pageopacity="1"
     inkscape:pagecheckerboard="0"
     inkscape:deskcolor="#d1d1d1"
     inkscape:document-units="mm"
     inkscape:zoom="5.5383285"
     inkscape:cx="41.077376"
     inkscape:cy="47.848372"
     inkscape:window-width="2560"
     inkscape:window-height="1334"
     inkscape:window-x="-11"
     inkscape:window-y="-11"
     inkscape:window-maximized="1"
     inkscape:current-layer="layer1" />
  <defs
     id="defs1">
    <marker
       style="overflow:visible"
       id="marker2"
       refX="0"
       refY="0"
       orient="auto-start-reverse"
       inkscape:stockid="Dart arrow"
       markerWidth="1"
       markerHeight="1"
       viewBox="0 0 1 1"
       inkscape:isstock="true"
       inkscape:collect="always"
       preserveAspectRatio="xMidYMid">
      <path
         style="fill:context-stroke;fill-rule:evenodd;stroke:none"
         d="M 0,0 5,-5 -12.5,0 5,5 Z"
         transform="scale(-0.5)"
         id="path2" />
    </marker>
    <marker
       style="overflow:visible"
       id="DartArrow"
       refX="0"
       refY="0"
       orient="auto-start-reverse"
       inkscape:stockid="Dart arrow"
       markerWidth="1"
       markerHeight="1"
       viewBox="0 0 1 1"
       inkscape:isstock="true"
       inkscape:collect="always"
       preserveAspectRatio="xMidYMid">
      <path
         style="fill:context-stroke;fill-rule:evenodd;stroke:none"
         d="M 0,0 5,-5 -12.5,0 5,5 Z"
         transform="scale(-0.5)"
         id="path6" />
    </marker>
  </defs>
  <g
     inkscape:label="Réteg 1"
     inkscape:groupmode="layer"
     id="layer1">
    <rect
       style="fill:#ffffff;stroke:none;stroke-width:0.2;stroke-linejoin:round;stroke-miterlimit:5"
       id="rect1"
       width="40"
       height="30.000002"
       x="0"
       y="0" />
    <path
       style="fill:#ffffff;stroke:#000000;stroke-width:0.2;stroke-linejoin:round;stroke-miterlimit:5;stroke-dasharray:0.2, 0.2;stroke-dashoffset:0;stroke-opacity:1;marker-start:url(#DartArrow);marker-end:url(#marker2)"
       d="M 14.021415,4.5623347 16.242863,17.723834 9.650172,24.316525"
       id="path1"
       sodipodi:nodetypes="ccc" />
    <path
       style="fill:#ffffff;stroke:#000000;stroke-width:0.2;stroke-linejoin:round;stroke-miterlimit:5;stroke-dasharray:0.2, 0.2;stroke-dashoffset:0;stroke-opacity:1;marker-end:url(#marker2)"
       d="m 16.242863,17.723834 10.00846,2.681758"
       id="path3" />
    <path
       style="fill:#ffffff;stroke:#000000;stroke-width:0.2;stroke-linejoin:round;stroke-miterlimit:5;stroke-dasharray:none;stroke-dashoffset:0;stroke-opacity:1;marker-end:url(#marker2)"
       d="M 8.9096902,17.627241 H 29.92987"
       id="path4" />
    <path
       style="fill:#ffffff;stroke:#000000;stroke-width:0.2;stroke-linejoin:round;stroke-miterlimit:5;stroke-dasharray:none;stroke-dashoffset:0;stroke-opacity:1;marker-end:url(#marker2)"
       d="M 16.342862,24.340413 V 20.136378 3.2008003"
       id="path5"
       sodipodi:nodetypes="ccc" />
    <g
       inkscape:label=""
       transform="translate(19.7422,16.3742)"
       id="g7">
      <g
         fill="#000000"
         fill-opacity="1"
         id="g2"
         transform="matrix(0.352778,0,0,0.352778,-0.945621,-0.614583)">
        <g
           id="use1"
           transform="translate(1.993,12.664)" />
      </g>
    </g>
    <g
       inkscape:label=""
       transform="translate(7.4544809,25.689962)"
       id="g12">
      <g
         fill="#000000"
         fill-opacity="1"
         id="g11"
         transform="matrix(0.352778,0,0,0.352778,-0.791281,-0.673232)">
        <g
           id="g10"
           transform="translate(1.993,5.4239998)">
          <path
             d="M 4,-3.171875 C 3.640625,-3.09375 3.625,-2.78125 3.625,-2.75 c 0,0.171875 0.140625,0.296875 0.3125,0.296875 0.171875,0 0.4375,-0.140625 0.4375,-0.484375 0,-0.453125 -0.5,-0.578125 -0.796875,-0.578125 C 3.21875,-3.515625 2.90625,-3.25 2.71875,-2.9375 2.546875,-3.359375 2.140625,-3.515625 1.8125,-3.515625 c -0.875,0 -1.359375,1 -1.359375,1.21875 0,0.078125 0.0625,0.109375 0.125,0.109375 0.09375,0 0.109375,-0.046875 0.125,-0.140625 0.1875,-0.578125 0.671875,-0.96875 1.078125,-0.96875 0.3125,0 0.46875,0.234375 0.46875,0.515625 C 2.25,-2.625 2.15625,-2.25 2.09375,-2 c -0.0625,0.234375 -0.234375,0.9375 -0.28125,1.09375 -0.109375,0.421875 -0.390625,0.765625 -0.75,0.765625 -0.03125,0 -0.234375,0 -0.40625,-0.109375 0.359375,-0.09375 0.359375,-0.421875 0.359375,-0.4375 0,-0.1875 -0.140625,-0.296875 -0.3125,-0.296875 -0.21875,0 -0.453125,0.1875 -0.453125,0.484375 0,0.375 0.390625,0.578125 0.796875,0.578125 0.421875,0 0.71875,-0.3125 0.859375,-0.578125 0.1875,0.390625 0.546875,0.578125 0.9375,0.578125 0.859375,0 1.34375,-1 1.34375,-1.21875 C 4.1875,-1.21875 4.125,-1.25 4.0625,-1.25 c -0.09375,0 -0.109375,0.0625 -0.140625,0.140625 -0.15625,0.53125 -0.609375,0.96875 -1.0625,0.96875 -0.265625,0 -0.453125,-0.171875 -0.453125,-0.515625 0,-0.15625 0.046875,-0.34375 0.15625,-0.78125 0.046875,-0.25 0.21875,-0.9375 0.265625,-1.09375 0.109375,-0.421875 0.390625,-0.765625 0.75,-0.765625 0.046875,0 0.25,0 0.421875,0.125 z m 0,0"
             id="path10" />
        </g>
      </g>
    </g>
    <g
       inkscape:label=""
       transform="translate(27.458729,20.028845)"
       id="g15">
      <g
         fill="#000000"
         fill-opacity="1"
         id="g14"
         transform="matrix(0.352778,0,0,0.352778,-0.785768,-0.673232)">
        <g
           id="g13"
           transform="translate(1.993,5.4239998)">
          <path
             d="m 4.125,-3 c 0.03125,-0.109375 0.03125,-0.125 0.03125,-0.1875 0,-0.203125 -0.15625,-0.25 -0.25,-0.25 -0.046875,0 -0.21875,0.015625 -0.328125,0.21875 -0.015625,0.046875 -0.09375,0.328125 -0.125,0.5 L 2.96875,-0.8125 c 0,0.03125 -0.34375,0.671875 -0.921875,0.671875 -0.390625,0 -0.53125,-0.296875 -0.53125,-0.640625 0,-0.46875 0.265625,-1.171875 0.453125,-1.640625 C 2.046875,-2.625 2.078125,-2.6875 2.078125,-2.84375 c 0,-0.4375 -0.359375,-0.671875 -0.71875,-0.671875 -0.796875,0 -1.125,1.125 -1.125,1.21875 0,0.078125 0.0625,0.109375 0.125,0.109375 0.109375,0 0.109375,-0.046875 0.140625,-0.125 0.203125,-0.703125 0.546875,-0.984375 0.828125,-0.984375 0.125,0 0.1875,0.078125 0.1875,0.265625 0,0.171875 -0.0625,0.359375 -0.109375,0.5 -0.328125,0.84375 -0.46875,1.25 -0.46875,1.625 0,0.78125 0.59375,0.984375 1.0625,0.984375 0.375,0 0.640625,-0.171875 0.84375,-0.34375 -0.125,0.4375 -0.203125,0.75 -0.5,1.140625 C 2.078125,1.1875 1.765625,1.40625 1.40625,1.40625 1.265625,1.40625 0.96875,1.375 0.8125,1.140625 1.234375,1.109375 1.265625,0.75 1.265625,0.703125 c 0,-0.1875 -0.15625,-0.296875 -0.3125,-0.296875 C 0.765625,0.40625 0.5,0.546875 0.5,0.9375 0.5,1.3125 0.84375,1.625 1.40625,1.625 2.21875,1.625 3.125,0.96875 3.375,0.015625 Z m 0,0"
             id="path12" />
        </g>
      </g>
    </g>
    <g
       inkscape:label=""
       transform="translate(12.881652,2.0619715)"
       id="g18">
      <g
         fill="#000000"
         fill-opacity="1"
         id="g17"
         transform="matrix(0.352778,0,0,0.352778,-0.824353,-0.673232)">
        <g
           id="g16"
           transform="translate(1.993,5.4239998)">
          <path
             d="M 1.15625,-0.6875 C 1.4375,-0.984375 1.53125,-1.078125 2.234375,-1.65625 2.3125,-1.734375 2.875,-2.1875 3.09375,-2.40625 c 0.5,-0.484375 0.8125,-0.921875 0.8125,-1.015625 0,-0.0625 -0.0625,-0.09375 -0.125,-0.09375 -0.078125,0 -0.078125,0.015625 -0.15625,0.140625 -0.25,0.359375 -0.421875,0.421875 -0.578125,0.421875 -0.140625,0 -0.234375,-0.0625 -0.40625,-0.21875 C 2.4375,-3.375 2.28125,-3.515625 2.03125,-3.515625 c -0.640625,0 -1.046875,0.71875 -1.046875,0.9375 0,0 0,0.09375 0.125,0.09375 0.078125,0 0.109375,-0.03125 0.140625,-0.125 0.09375,-0.234375 0.4375,-0.3125 0.671875,-0.3125 0.1875,0 0.375,0.046875 0.578125,0.109375 0.328125,0.09375 0.40625,0.09375 0.578125,0.09375 -0.15625,0.171875 -0.390625,0.390625 -1,0.890625 C 1.75,-1.546875 1.40625,-1.28125 1.1875,-1.0625 c -0.578125,0.578125 -0.84375,0.96875 -0.84375,1.046875 0,0.078125 0.0625,0.09375 0.125,0.09375 C 0.546875,0.078125 0.5625,0.0625 0.609375,0 c 0.15625,-0.234375 0.40625,-0.484375 0.703125,-0.484375 0.1875,0 0.265625,0.0625 0.421875,0.21875 0.25,0.25 0.390625,0.34375 0.625,0.34375 0.828125,0 1.328125,-0.984375 1.328125,-1.234375 0,-0.078125 -0.046875,-0.109375 -0.125,-0.109375 -0.078125,0 -0.09375,0.046875 -0.125,0.140625 C 3.28125,-0.734375 2.84375,-0.515625 2.453125,-0.515625 2.296875,-0.515625 2.125,-0.5625 1.875,-0.625 1.546875,-0.703125 1.46875,-0.703125 1.34375,-0.703125 c -0.078125,0 -0.125,0 -0.1875,0.015625 z m 0,0"
             id="path15" />
        </g>
      </g>
    </g>
    <g
       inkscape:label=""
       transform="translate(31.876577,16.663113)"
       id="g21">
      <g
         fill="#000000"
         fill-opacity="1"
         id="g20"
         transform="matrix(0.352778,0,0,0.352778,-0.769232,-0.698897)">
        <g
           id="g19"
           transform="translate(1.993,7.5279999)">
          <path
             d="m 1.625,-2.34375 c 0.28125,0.109375 0.578125,0.109375 0.75,0.109375 0.28125,0 0.796875,0 0.796875,-0.296875 0,-0.234375 -0.4375,-0.234375 -0.703125,-0.234375 -0.15625,0 -0.40625,0 -0.71875,0.109375 -0.171875,-0.171875 -0.25,-0.390625 -0.25,-0.625 0,-0.4375 0.3125,-1 0.90625,-1.28125 0.171875,0.1875 0.375,0.1875 0.546875,0.1875 0.296875,0 0.75,-0.03125 0.75,-0.296875 C 3.703125,-4.90625 3.28125,-4.90625 3,-4.90625 c -0.140625,0 -0.28125,0 -0.5,0.03125 -0.015625,-0.0625 -0.03125,-0.140625 -0.03125,-0.234375 0,-0.125 0.03125,-0.25 0.03125,-0.28125 0,0 0,-0.03125 0,-0.046875 0,-0.0625 -0.046875,-0.109375 -0.109375,-0.109375 -0.171875,0 -0.171875,0.34375 -0.171875,0.421875 0,0.15625 0.03125,0.28125 0.046875,0.296875 -0.890625,0.234375 -1.4375,0.875 -1.4375,1.5 0,0.40625 0.203125,0.671875 0.515625,0.84375 -0.859375,0.5 -1.15625,1.296875 -1.15625,1.65625 0,0.734375 0.734375,1 0.984375,1.09375 C 1.625,0.4375 1.640625,0.4375 2.03125,0.5625 c 0.1875,0.078125 0.515625,0.1875 0.5625,0.21875 0.125,0.09375 0.125,0.203125 0.125,0.25 0,0.140625 -0.09375,0.375 -0.359375,0.375 C 2.296875,1.40625 1.96875,1.390625 1.65625,1.1875 1.578125,1.140625 1.5625,1.125 1.53125,1.125 1.4375,1.125 1.421875,1.21875 1.421875,1.25 c 0,0.125 0.5,0.375 0.953125,0.375 0.53125,0 0.859375,-0.5 0.859375,-0.875 0,-0.140625 -0.0625,-0.28125 -0.15625,-0.40625 C 2.96875,0.234375 2.875,0.203125 2.421875,0.046875 c -0.6875,-0.25 -1.203125,-0.4375 -1.34375,-0.515625 -0.25,-0.125 -0.421875,-0.3125 -0.421875,-0.578125 0,-0.328125 0.296875,-0.9375 0.96875,-1.296875 z M 3.40625,-4.640625 C 3.328125,-4.625 3.25,-4.609375 2.953125,-4.609375 c -0.171875,0 -0.203125,0 -0.296875,-0.046875 0.125,-0.03125 0.21875,-0.03125 0.359375,-0.03125 0.21875,0 0.265625,0.015625 0.390625,0.03125 z M 2.875,-2.5 c -0.078125,0.015625 -0.15625,0.03125 -0.46875,0.03125 -0.15625,0 -0.234375,0 -0.359375,-0.03125 0.171875,-0.046875 0.265625,-0.046875 0.421875,-0.046875 0.21875,0 0.28125,0.015625 0.40625,0.03125 z m 0,0"
             id="path18" />
        </g>
      </g>
    </g>
    <g
       inkscape:label=""
       transform="translate(15.640061,0.39408533)"
       id="g24">
      <g
         fill="#000000"
         fill-opacity="1"
         id="g23"
         transform="matrix(0.352778,0,0,0.352778,-0.785768,-0.673232)">
        <g
           id="g22"
           transform="translate(1.993,5.4239998)">
          <path
             d="m 4.15625,-2.203125 c 0.03125,-0.109375 0.0625,-0.25 0.0625,-0.421875 0,-0.609375 -0.421875,-0.890625 -0.984375,-0.890625 -0.65625,0 -1.0625,0.390625 -1.296875,0.6875 -0.0625,-0.4375 -0.40625,-0.6875 -0.8125,-0.6875 -0.28125,0 -0.484375,0.1875 -0.609375,0.4375 -0.1875,0.359375 -0.28125,0.765625 -0.28125,0.78125 0,0.078125 0.0625,0.109375 0.125,0.109375 0.109375,0 0.109375,-0.03125 0.171875,-0.25 0.09375,-0.40625 0.234375,-0.859375 0.5625,-0.859375 0.203125,0 0.265625,0.1875 0.265625,0.375 0,0.15625 -0.046875,0.296875 -0.109375,0.5625 -0.015625,0.0625 -0.140625,0.53125 -0.171875,0.640625 L 0.78125,-0.515625 c -0.03125,0.125 -0.078125,0.3125 -0.078125,0.34375 0,0.1875 0.15625,0.25 0.265625,0.25 0.140625,0 0.265625,-0.09375 0.3125,-0.1875 C 1.3125,-0.15625 1.375,-0.4375 1.40625,-0.59375 l 0.1875,-0.71875 c 0.03125,-0.109375 0.109375,-0.421875 0.125,-0.53125 0.109375,-0.4375 0.109375,-0.4375 0.296875,-0.703125 0.265625,-0.390625 0.640625,-0.75 1.171875,-0.75 0.28125,0 0.453125,0.171875 0.453125,0.546875 0,0.15625 -0.0625,0.453125 -0.0625,0.453125 L 2.671875,1.28125 c -0.03125,0.125 -0.03125,0.171875 -0.03125,0.1875 0,0.203125 0.171875,0.25 0.265625,0.25 0.265625,0 0.34375,-0.265625 0.359375,-0.359375 z m 0,0"
             id="path21" />
        </g>
      </g>
    </g>
    <path
       style="fill:#ffffff;stroke:#000000;stroke-width:0.2;stroke-linejoin:round;stroke-miterlimit:5;stroke-dasharray:none;stroke-dashoffset:0;stroke-opacity:1"
       id="path24"
       sodipodi:type="arc"
       sodipodi:cx="16.242863"
       sodipodi:cy="17.723833"
       sodipodi:rx="6.055244"
       sodipodi:ry="6.055244"
       sodipodi:start="2.3644751"
       sodipodi:end="3.1415927"
       sodipodi:arc-type="slice"
       d="m 11.925851,21.969936 a 6.055244,6.055244 0 0 1 -1.738232,-4.246103 h 6.055244 z" />
    <path
       style="fill:#ffffff;stroke:#000000;stroke-width:0.2;stroke-linejoin:round;stroke-miterlimit:5;stroke-dasharray:none;stroke-dashoffset:0;stroke-opacity:1"
       id="path25"
       sodipodi:type="arc"
       sodipodi:cx="16.242863"
       sodipodi:cy="17.723833"
       sodipodi:rx="8.1268559"
       sodipodi:ry="8.1268559"
       sodipodi:start="6.26717"
       sodipodi:end="0.27796365"
       sodipodi:arc-type="slice"
       d="m 24.368676,17.593685 a 8.1268559,8.1268559 0 0 1 -0.310897,2.360141 l -7.814916,-2.229993 z" />
    <path
       style="fill:#ffffff;stroke:#000000;stroke-width:0.2;stroke-linejoin:round;stroke-miterlimit:5;stroke-dasharray:none;stroke-dashoffset:0;stroke-opacity:1"
       id="path26"
       sodipodi:type="arc"
       sodipodi:cx="16.242863"
       sodipodi:cy="17.723833"
       sodipodi:rx="9.1980782"
       sodipodi:ry="9.1980782"
       sodipodi:start="4.5524722"
       sodipodi:end="4.7234704"
       sodipodi:arc-type="slice"
       d="M 14.778197,8.6431175 A 9.1980782,9.1980782 0 0 1 16.344788,8.5263197 L 16.242863,17.723833 Z" />
    <g
       inkscape:label=""
       transform="translate(11.722239,18.701957)"
       id="g29">
      <g
         fill="#000000"
         fill-opacity="1"
         id="g28"
         transform="matrix(0.352778,0,0,0.352778,-0.824353,-0.673232)">
        <g
           id="g27"
           transform="translate(1.993,5.4239998)">
          <path
             d="m 4.0625,-1.109375 c 0.75,-0.8125 1,-1.859375 1,-1.921875 0,-0.0625 -0.046875,-0.09375 -0.109375,-0.09375 -0.109375,0 -0.109375,0.03125 -0.15625,0.1875 C 4.5625,-2.125 4.09375,-1.5 4.0625,-1.5 4.046875,-1.5 4.046875,-1.703125 4.046875,-1.828125 4.03125,-3.234375 3.125,-3.515625 2.578125,-3.515625 c -1.125,0 -2.234375,1.09375 -2.234375,2.21875 0,0.78125 0.5625,1.375 1.40625,1.375 0.546875,0 1.140625,-0.203125 1.765625,-0.671875 0.1875,0.640625 0.640625,0.671875 0.78125,0.671875 0.453125,0 0.71875,-0.40625 0.71875,-0.5625 0,-0.09375 -0.09375,-0.09375 -0.109375,-0.09375 -0.09375,0 -0.109375,0.03125 -0.140625,0.078125 -0.125,0.34375 -0.390625,0.359375 -0.4375,0.359375 -0.109375,0 -0.234375,0 -0.265625,-0.96875 z m -0.59375,0.25 C 2.90625,-0.34375 2.234375,-0.140625 1.765625,-0.140625 1.359375,-0.140625 1,-0.375 1,-1.015625 1,-1.296875 1.125,-2.125 1.5,-2.65625 c 0.3125,-0.4375 0.75,-0.640625 1.078125,-0.640625 0.4375,0 0.6875,0.3125 0.78125,0.796875 0.125,0.546875 0.0625,1.1875 0.109375,1.640625 z m 0,0"
             id="path27" />
        </g>
      </g>
    </g>
    <g
       inkscape:label=""
       transform="matrix(0.66548927,0,0,0.66548927,22.361172,17.827326)"
       id="g32">
      <g
         fill="#000000"
         fill-opacity="1"
         id="g31"
         transform="matrix(0.352778,0,0,0.352778,-0.790417,-0.671336)">
        <g
           id="g30"
           transform="translate(1.993,7.5279999)">
          <path
             d="m 4.78125,-4.53125 c 0,-0.734375 -0.59375,-1.09375 -1.25,-1.09375 -1.03125,0 -1.796875,1.171875 -2.015625,2.046875 L 0.25,1.453125 C 0.234375,1.5 0.296875,1.546875 0.34375,1.546875 c 0.078125,0 0.140625,0 0.15625,-0.0625 l 0.53125,-2.125 c 0.1875,0.421875 0.5625,0.71875 1.140625,0.71875 1.09375,0 2.296875,-0.78125 2.296875,-2.046875 C 4.46875,-2.5 4.265625,-2.859375 3.875,-3.171875 3.921875,-3.1875 4.0625,-3.296875 4.109375,-3.328125 4.5,-3.59375 4.78125,-4.046875 4.78125,-4.53125 Z m -1.5625,1.359375 c -0.15625,0.015625 -0.296875,0.03125 -0.453125,0.03125 -0.078125,0 -0.171875,0 -0.25,-0.03125 0.140625,-0.046875 0.3125,-0.046875 0.453125,-0.046875 0.078125,0 0.15625,0.015625 0.25,0.046875 z M 4.28125,-4.6875 c 0,0.40625 -0.171875,0.875 -0.453125,1.15625 C 3.78125,-3.5 3.625,-3.34375 3.5625,-3.34375 3.34375,-3.375 3.171875,-3.4375 2.9375,-3.4375 c -0.203125,0 -0.703125,-0.015625 -0.703125,0.296875 0,0.234375 0.453125,0.21875 0.609375,0.21875 0.25,0 0.484375,-0.015625 0.703125,-0.109375 0.25,0.1875 0.359375,0.453125 0.359375,0.84375 0,0.46875 -0.15625,1 -0.390625,1.3125 -0.28125,0.421875 -0.78125,0.71875 -1.375,0.71875 -0.53125,0 -0.953125,-0.40625 -0.953125,-0.953125 0,-0.109375 0.015625,-0.21875 0.046875,-0.296875 L 1.75,-3.515625 c 0.171875,-0.703125 0.859375,-1.875 1.75,-1.875 0.40625,0 0.78125,0.1875 0.78125,0.703125 z m 0,0"
             id="path29" />
        </g>
      </g>
    </g>
    <g
       inkscape:label=""
       transform="matrix(0.63186277,0,0,0.63186277,15.1195,9.4749205)"
       id="g35">
      <g
         fill="#000000"
         fill-opacity="1"
         id="g34"
         transform="matrix(0.352778,0,0,0.352778,-0.752695,-0.673232)">
        <g
           id="g33"
           transform="translate(1.993,5.4239998)">
          <path
             d="m 3.265625,-1.28125 c -0.09375,-0.984375 -0.5,-1.625 -0.5,-1.640625 -0.171875,-0.265625 -0.46875,-0.59375 -1,-0.59375 -1.03125,0 -1.625,1.15625 -1.625,1.4375 0,0.0625 0.0625,0.09375 0.125,0.09375 0.078125,0 0.09375,-0.03125 0.125,-0.09375 0.234375,-0.703125 1.03125,-0.8125 1.265625,-0.8125 1.28125,0 1.375,1.390625 1.375,2.046875 0,0.453125 -0.015625,0.515625 -0.078125,0.703125 -0.171875,0.5625 -0.40625,1.453125 -0.40625,1.671875 0,0.015625 0,0.1875 0.125,0.1875 0.09375,0 0.171875,-0.125 0.234375,-0.328125 C 3.125,0.65625 3.203125,0.125 3.25,-0.234375 c 0.03125,-0.15625 0.46875,-1.5 1.21875,-2.890625 0.09375,-0.171875 0.09375,-0.1875 0.09375,-0.21875 0,0 0,-0.09375 -0.125,-0.09375 -0.03125,0 -0.0625,0.015625 -0.09375,0.03125 C 4.3125,-3.375 3.6875,-2.203125 3.296875,-1.109375 Z m 0,0"
             id="path32" />
        </g>
      </g>
    </g>
  </g>
</svg>
